<svg width="306" height="2850" fill="none" xmlns="http://www.w3.org/2000/svg"><path d="M11.458 1879.86V1768.5l276.14-70.14v101.2s-144.893 35.3-141.907 34.78l141.907 40.27v69.84l-141.907 40.27c-2.951-.52 141.907 34.78 141.907 34.78v101.2l-276.14-70.11v-118.32l110.136-22.74-110.136-29.7v.03ZM153.017 0C246.869 0 306 67.922 306 169.404c0 101.483-59.131 169.405-152.983 169.405C59.131 338.809 0 270.887 0 169.404 0 67.922 59.13 0 153.017 0Zm0 107.395c-31.457 0-49.929 26.014-49.929 62.009 0 35.996 18.472 62.01 49.929 62.01 31.458 0 49.93-26.014 49.93-62.01 0-35.995-18.472-62.009-49.93-62.009Zm32.708 722.238h101.873V1119.4H185.725v-86.8H11.458V916.022H185.69v-86.389h.035Zm101.873-467.245v212.391h-82.776V478.86h-29.166v73.834H92.88V478.86H11.7V362.423h275.897v-.035Zm0 230.093v212.39h-82.776v-95.918h-29.166v73.834H92.88v-73.834H11.7V592.515h275.897v-.034Zm-186.42 714.409v-51.33H11.701v-116.44h275.897v116.44h-91.839v51.33h91.839v116.48H11.701v-116.48h89.477Zm186.42 139.71v226.75H208.78v-110.32h-23.645v88.2h-68.957v-88.2H90.554v110.32H11.7V1446.6h275.897Zm-.243 962.55v116.44H109.998v95.15h-98.54v-211.59h275.897Zm0 229.26v116.44H109.998V2850h-98.54v-211.59h275.897Zm.243-466.06v121.3l-276.14 101.14v-118.94l33.923-8.7v-68.34l-33.923-8.69v-119.74l276.14 101.93v.04Zm-174.371 77.03 64.304-16.59-64.304-16.59v33.18Z" fill="#0F050F"/></svg>